<svg xmlns="http://www.w3.org/2000/svg" width="520" height="110" viewBox="0 0 520 110" fill="none">
  <defs>
    <linearGradient id="book" x1="10" y1="10" x2="80" y2="90" gradientUnits="userSpaceOnUse">
      <stop stop-color="#5146FF"/>
      <stop offset="1" stop-color="#3024D8"/>
    </linearGradient>
    <linearGradient id="reads" x1="330" y1="25" x2="510" y2="85" gradientUnits="userSpaceOnUse">
      <stop stop-color="#4B36FF"/>
      <stop offset="1" stop-color="#6B3DFF"/>
    </linearGradient>
  </defs>

  <!-- Open book icon -->
  <path d="M12 24C28 15 47 15 62 25V82C46 72 29 72 12 82V24Z"
        fill="url(#book)"/>
  <path d="M62 25C77 15 96 15 112 24V82C95 72 78 72 62 82V25Z"
        fill="url(#book)"/>
  <path d="M62 25V82" stroke="#241CCB" stroke-width="3"/>
  <path d="M8 84C27 74 45 76 62 86C79 76 97 74 116 84"
        stroke="#4A3AFF" stroke-width="6" stroke-linecap="round" fill="none"/>
  <path d="M18 31C31 25 44 26 55 32M69 32C80 26 93 25 106 31"
        stroke="#8B82FF" stroke-width="2.5" stroke-linecap="round" opacity=".75"/>

  <!-- Wordmark -->
  <text x="130" y="72"
        font-family="Arial, Helvetica, sans-serif"
        font-size="52"
        font-weight="700"
        letter-spacing="-2.2">
    <tspan fill="#11183A">Daily</tspan><tspan fill="url(#reads)">Reads</tspan>
  </text>
</svg>